<svg xmlns="http://www.w3.org/2000/svg" viewBox="0 0 1600 900">
  <path d="M540 700L670 560H930L1060 700Z" fill="#3f2518" opacity="0.95"/>
  <rect x="660" y="560" width="260" height="150" fill="#5f3a29" opacity="0.94"/>
  <rect x="758" y="608" width="64" height="102" fill="#140d08" opacity="0.95"/>
  <path d="M520 640L640 560" stroke="#8e5a40" stroke-width="18" stroke-linecap="round" opacity="0.75"/>
  <path d="M950 562L1085 650" stroke="#8e5a40" stroke-width="16" stroke-linecap="round" opacity="0.72"/>
  <g fill="#d7b089" opacity="0.84">
    <circle cx="1086" cy="616" r="9"/>
    <rect x="1080" y="624" width="12" height="35" rx="4"/>
    <path d="M1088 628L1118 610" stroke="#d7b089" stroke-width="6" stroke-linecap="round"/>

    <circle cx="1152" cy="632" r="8"/>
    <rect x="1147" y="640" width="10" height="30" rx="4"/>
    <path d="M1152 644L1180 630" stroke="#d7b089" stroke-width="6" stroke-linecap="round"/>

    <circle cx="1012" cy="640" r="8"/>
    <rect x="1007" y="648" width="10" height="29" rx="4"/>
    <path d="M1012 652L992 634" stroke="#d7b089" stroke-width="6" stroke-linecap="round"/>
  </g>
  <path d="M1092 615L1128 550" stroke="#db8c5f" stroke-width="8" stroke-linecap="round" opacity="0.84"/>
  <path d="M1130 546L1118 566L1144 566Z" fill="#efb178" opacity="0.86"/>
</svg>
