<svg xmlns="http://www.w3.org/2000/svg" viewBox="0 0 1600 900">
  <defs>
    <linearGradient id="sky" x1="0" y1="0" x2="0" y2="1">
      <stop offset="0%" stop-color="#16131a"/>
      <stop offset="48%" stop-color="#3f3f53"/>
      <stop offset="100%" stop-color="#171217"/>
    </linearGradient>
    <radialGradient id="cold" cx="70%" cy="24%" r="52%">
      <stop offset="0%" stop-color="#c8d4e7" stop-opacity="0.35"/>
      <stop offset="100%" stop-color="#c8d4e7" stop-opacity="0"/>
    </radialGradient>
    <linearGradient id="leftshade" x1="0" y1="0" x2="1" y2="0">
      <stop offset="0%" stop-color="#0f0c12" stop-opacity="0.88"/>
      <stop offset="64%" stop-color="#0f0c12" stop-opacity="0.2"/>
      <stop offset="100%" stop-color="#0f0c12" stop-opacity="0"/>
    </linearGradient>
  </defs>
  <rect width="1600" height="900" fill="url(#sky)"/>
  <rect width="1600" height="900" fill="url(#cold)"/>
  <path d="M0 620L200 420L360 540L560 340L760 520L960 300L1160 500L1340 360L1600 580V900H0Z" fill="#222335"/>
  <path d="M0 690C220 640 380 620 580 642C760 662 930 634 1120 620C1290 608 1440 618 1600 642V900H0Z" fill="#2e2a35"/>
  <path d="M560 340L620 410L700 374L760 520L560 340Z" fill="#d4deef" opacity="0.2"/>
  <path d="M960 300L1018 372L1085 340L1160 500L960 300Z" fill="#d4deef" opacity="0.22"/>
  <rect width="930" height="900" fill="url(#leftshade)"/>
</svg>
