<svg xmlns="http://www.w3.org/2000/svg" viewBox="0 0 1600 900">
  <defs>
    <linearGradient id="g" x1="0" y1="0" x2="0" y2="1">
      <stop offset="0%" stop-color="#1a100b"/>
      <stop offset="50%" stop-color="#623524"/>
      <stop offset="100%" stop-color="#160d08"/>
    </linearGradient>
    <linearGradient id="left" x1="0" y1="0" x2="1" y2="0">
      <stop offset="0%" stop-color="#0e0805" stop-opacity="0.9"/>
      <stop offset="62%" stop-color="#0e0805" stop-opacity="0.2"/>
      <stop offset="100%" stop-color="#0e0805" stop-opacity="0"/>
    </linearGradient>
  </defs>
  <rect width="1600" height="900" fill="url(#g)"/>
  <path d="M0 610L220 520L410 560L620 500L820 560L1030 500L1240 560L1400 520L1600 580V900H0Z" fill="#29180f"/>
  <path d="M0 700C280 666 520 670 820 708C1080 742 1340 740 1600 714V900H0Z" fill="#22150d"/>
  <g fill="#694131" opacity="0.62">
    <ellipse cx="520" cy="600" rx="120" ry="34"/>
    <ellipse cx="700" cy="620" rx="150" ry="40"/>
    <ellipse cx="920" cy="610" rx="130" ry="36"/>
  </g>
  <rect width="920" height="900" fill="url(#left)"/>
</svg>
