<svg xmlns="http://www.w3.org/2000/svg" viewBox="0 0 1600 900">
  <g opacity="0.95">
    <path d="M820 620C760 620 722 582 722 540C722 502 760 476 812 476H904C960 476 1000 506 1000 548C1000 590 958 620 902 620Z" fill="#8f6347"/>
    <ellipse cx="780" cy="534" rx="74" ry="58" fill="#8f6347"/>
    <path d="M700 538C656 536 646 500 682 486" stroke="#8f6347" stroke-width="16" stroke-linecap="round" fill="none"/>
    <rect x="768" y="614" width="30" height="86" rx="8" fill="#5c3a29"/>
    <rect x="846" y="614" width="30" height="90" rx="8" fill="#5c3a29"/>
    <rect x="912" y="612" width="30" height="94" rx="8" fill="#5c3a29"/>
  </g>
  <g opacity="0.86" fill="#d9b791">
    <rect x="500" y="628" width="20" height="48" rx="4"/>
    <rect x="528" y="624" width="20" height="52" rx="4"/>
    <rect x="556" y="620" width="20" height="56" rx="4"/>
    <rect x="584" y="626" width="20" height="50" rx="4"/>
    <rect x="612" y="630" width="20" height="46" rx="4"/>
    <rect x="1048" y="624" width="20" height="52" rx="4"/>
    <rect x="1076" y="620" width="20" height="56" rx="4"/>
    <rect x="1104" y="624" width="20" height="52" rx="4"/>
    <rect x="1132" y="630" width="20" height="46" rx="4"/>
    <rect x="1160" y="634" width="20" height="44" rx="4"/>
  </g>
  <g stroke="#c89d67" stroke-width="5" opacity="0.78">
    <path d="M494 624L494 566"/>
    <path d="M526 620L526 558"/>
    <path d="M558 614L558 552"/>
    <path d="M1100 618L1100 552"/>
    <path d="M1132 624L1132 562"/>
    <path d="M1162 628L1162 568"/>
  </g>
</svg>
