<svg xmlns="http://www.w3.org/2000/svg" viewBox="0 0 1600 900">
  <path d="M630 660C700 646 760 650 840 674C914 696 986 700 1080 682" stroke="#c8b59a" stroke-width="10" fill="none" opacity="0.75"/>
  <g fill="#d8b893" opacity="0.86">
    <circle cx="760" cy="626" r="8"/><rect x="754" y="634" width="12" height="34" rx="4"/>
    <circle cx="802" cy="620" r="8"/><rect x="796" y="628" width="12" height="42" rx="4"/>
    <circle cx="844" cy="614" r="8"/><rect x="838" y="622" width="12" height="48" rx="4"/>
    <circle cx="886" cy="618" r="8"/><rect x="880" y="626" width="12" height="44" rx="4"/>
  </g>
  <path d="M744 628L744 520" stroke="#c99464" stroke-width="7"/>
  <path d="M744 520L816 550L744 550" fill="#c99464"/>
  <path d="M850 636L912 602" stroke="#c99464" stroke-width="6" stroke-linecap="round" opacity="0.75"/>
</svg>
