<svg xmlns="http://www.w3.org/2000/svg" viewBox="0 0 1600 900">
  <defs>
    <linearGradient id="sky" x1="0" y1="0" x2="0" y2="1">
      <stop offset="0%" stop-color="#2b1810"/>
      <stop offset="52%" stop-color="#6f3b28"/>
      <stop offset="100%" stop-color="#1a1008"/>
    </linearGradient>
    <radialGradient id="sun" cx="72%" cy="20%" r="42%">
      <stop offset="0%" stop-color="#dca26d" stop-opacity="0.65"/>
      <stop offset="100%" stop-color="#dca26d" stop-opacity="0"/>
    </radialGradient>
    <linearGradient id="leftfade" x1="0" y1="0" x2="1" y2="0">
      <stop offset="0%" stop-color="#120b06" stop-opacity="0.88"/>
      <stop offset="58%" stop-color="#120b06" stop-opacity="0.18"/>
      <stop offset="100%" stop-color="#120b06" stop-opacity="0"/>
    </linearGradient>
  </defs>
  <rect width="1600" height="900" fill="url(#sky)"/>
  <rect width="1600" height="900" fill="url(#sun)"/>
  <path d="M0 540L140 500L280 520L430 470L600 500L790 430L980 490L1180 440L1400 510L1600 500V900H0Z" fill="#23150d"/>
  <path d="M0 640C180 610 310 620 500 650C700 680 840 640 1020 610C1190 585 1340 590 1600 640V900H0Z" fill="#2b1910"/>
  <path d="M180 620C420 570 700 560 980 600C1180 628 1400 628 1600 612V692C1390 704 1170 706 930 674C660 640 430 646 180 692Z" fill="#6d4a35" opacity="0.55"/>
  <rect width="940" height="900" fill="url(#leftfade)"/>
</svg>
